<svg width="113" height="48" viewBox="0 0 113 48" fill="none" xmlns="http://www.w3.org/2000/svg">
  <path fill-rule="evenodd" clip-rule="evenodd" d="M51 21.7574C51 24.8398 51 26.3809 50.074 26.7645C49.148 27.148 48.0583 26.0583 45.8787 23.8787L27.1213 5.12132C24.9417 2.94174 23.8519 1.85195 22.926 2.2355C22 2.61905 22 4.16025 22 7.24264V41C22 42.8856 22 43.8284 22.5858 44.4142C23.1716 45 24.1144 45 26 45H63C64.8856 45 65.8284 45 66.4142 44.4142C67 43.8284 67 42.8856 67 41V7C67 5.11438 67 4.17157 66.4142 3.58578C65.8284 3 64.8856 3 63 3H55C53.1144 3 52.1716 3 51.5858 3.58578C51 4.17157 51 5.11438 51 7V21.7574ZM2 7C2 5.11438 2 4.17157 2.58579 3.58578C3.17157 3 4.11438 3 6 3H14C15.8856 3 16.8284 3 17.4142 3.58578C18 4.17157 18 5.11438 18 7V41C18 42.8856 18 43.8284 17.4142 44.4142C16.8284 45 15.8856 45 14 45H6C4.11438 45 3.17157 45 2.58579 44.4142C2 43.8284 2 42.8856 2 41V7ZM110.764 44.074C110.381 45 108.84 45 105.757 45H75C73.1144 45 72.1716 45 71.5858 44.4142C71 43.8284 71 42.8856 71 41V7C71 5.11438 71 4.17157 71.5858 3.58578C72.1716 3 73.1144 3 75 3H105.757C108.84 3 110.381 3 110.764 3.92597C111.148 4.85195 110.058 5.94174 107.879 8.12132L94.8284 21.1716C93.4951 22.5049 92.8284 23.1716 92.8284 24C92.8284 24.8284 93.4951 25.4951 94.8284 26.8284L107.879 39.8787C110.058 42.0583 111.148 43.148 110.764 44.074Z" fill="#FFBF00"/>
</svg>
