<svg width="113" height="48" viewBox="0 0 113 48" fill="none" xmlns="http://www.w3.org/2000/svg">
  <path fill-rule="evenodd" clip-rule="evenodd" d="M2 9C2 6.17157 2 4.75736 2.87868 3.87868C3.75736 3 5.17157 3 8 3H12C14.8284 3 16.2426 3 17.1213 3.87868C18 4.75736 18 6.17157 18 9V39C18 41.8284 18 43.2426 17.1213 44.1213C16.2426 45 14.8284 45 12 45H8C5.17157 45 3.75736 45 2.87868 44.1213C2 43.2426 2 41.8284 2 39V9ZM51 21.7574C51 24.8398 51 26.3809 50.074 26.7645C49.148 27.1481 48.0583 26.0583 45.8787 23.8787L29.1357 7.13571C26.0988 4.09882 24.5804 2.58038 23.2902 3.1148C22 3.64921 22 5.79661 22 10.0914V39C22 41.8284 22 43.2426 22.8787 44.1213C23.7574 45 25.1716 45 28 45H61C63.8284 45 65.2426 45 66.1213 44.1213C67 43.2426 67 41.8284 67 39V9C67 6.17157 67 4.75736 66.1213 3.87868C65.2426 3 63.8284 3 61 3H57C54.1716 3 52.7574 3 51.8787 3.87868C51 4.75736 51 6.17157 51 9V21.7574ZM110.019 43.7654C109.508 45 107.453 45 103.343 45H77C74.1716 45 72.7574 45 71.8787 44.1213C71 43.2426 71 41.8284 71 39V9C71 6.17157 71 4.75736 71.8787 3.87868C72.7574 3 74.1716 3 77 3H103.343C107.453 3 109.508 3 110.019 4.23463C110.531 5.46927 109.078 6.92232 106.172 9.82843L96.2426 19.7574C94.2426 21.7574 93.2426 22.7574 93.2426 24C93.2426 25.2426 94.2426 26.2426 96.2426 28.2426L106.172 38.1716C109.078 41.0777 110.531 42.5307 110.019 43.7654Z" fill="#FFBF00"/>
</svg>
